<svg width="44" height="44" viewBox="0 0 44 44" fill="none" xmlns="http://www.w3.org/2000/svg">
<path d="M21.9999 1.16682C10.5208 1.16682 1.16658 10.5002 1.16658 22.0002C1.16658 33.4793 10.5207 42.8335 21.9999 42.8335C33.4999 42.8335 42.8333 33.4793 42.8333 22.0002C42.8333 10.6951 33.8136 1.48383 22.5828 1.17483L21.9999 1.16682Z" fill="white" stroke="#CBD9EA"/>
<path d="M24.9894 27.5801C25.546 28.118 25.546 28.9899 25.008 29.5465C24.7297 29.8247 24.3773 29.9546 24.0062 29.9546C23.6538 29.9546 23.3013 29.8247 23.0416 29.5465L16.5673 23.1093C16.3076 22.8496 16.1592 22.4971 16.1592 22.1261C16.1592 21.7551 16.3076 21.4026 16.5673 21.1429L23.0416 14.7057C23.5796 14.1492 24.4515 14.1492 25.008 14.7057C25.546 15.2437 25.546 16.1341 24.9894 16.6721L19.5169 22.1261L24.9894 27.5801Z" fill="#3C4B62"/>
</svg>
