<svg width="20" height="21" viewBox="0 0 20 21" fill="none" xmlns="http://www.w3.org/2000/svg">
<path d="M18.8673 19.0536L18.8668 19.0541C18.4386 19.482 17.8921 19.7053 17.3242 19.7053C16.7755 19.7053 16.2393 19.5082 15.823 19.0654L15.8171 19.0591L15.811 19.0531L10.3676 13.648L10.0153 13.2982L9.66299 13.648L4.21956 19.0531L4.21847 19.0541C3.79028 19.482 3.24378 19.7053 2.67584 19.7053C2.13547 19.7053 1.55925 19.4798 1.13321 19.0541L1.13269 19.0536C0.293115 18.2173 0.28418 16.8523 1.13543 15.9737L6.57564 10.5688L6.93156 10.2152L6.57674 9.8605L1.13331 4.4188L1.13269 4.41818C0.289391 3.5781 0.28864 2.18429 1.13321 1.34045L1.13373 1.33993C1.97467 0.497267 3.34177 0.489313 4.22093 1.34291L9.66199 6.77614L10.0163 7.12993L10.3696 6.77514L15.7795 1.34245C16.6587 0.489316 18.0255 0.497419 18.8663 1.33994L18.8668 1.34045C19.7114 2.18429 19.7106 3.5781 18.8673 4.41818L18.8667 4.4188L13.4233 9.8605L13.0694 10.2142L13.4234 10.5678L18.8668 16.0065C19.7114 16.8503 19.7106 18.2135 18.8673 19.0536Z" fill="#086CB4" stroke="white"/>
</svg>
