<svg width="30" height="30" viewBox="0 0 30 30" fill="none" xmlns="http://www.w3.org/2000/svg">
<g clip-path="url(#clip0_561_5545)">
<path d="M30 14.4938C30 21.3836 24.9181 27.1087 18.3059 28.1181C18.3617 27.8124 18.3773 27.4957 18.3398 27.1748C18.3398 27.1748 18.3002 26.8372 18.2486 26.3952C20.5962 25.9953 22.7157 24.9181 24.3956 23.3689C24.2948 23.2851 24.1944 23.1763 24.0953 23.0319C23.6492 22.3808 24.2326 21.7349 24.2326 21.1655C24.2326 20.6071 23.1068 20.653 23.0655 20.2832C22.9233 19.0023 23.8516 18.9849 24.3465 18.49C24.8414 17.9951 23.8573 16.8699 23.2217 16.9425C22.5817 17.0108 20.7804 16.647 20.945 15.2688C21.1455 13.5902 18.8064 13.7383 18.4715 12.9548C17.9832 11.8128 18.7949 10.412 19.8536 10.0938C21.3532 9.64305 22.8305 8.41966 22.7151 7.0578C22.5844 5.5154 21.8863 4.12437 20.7364 3.29805C19.5399 2.81329 18.2496 2.51354 16.8997 2.4379C15.6949 2.48555 14.6357 2.75329 14.6841 3.30486C14.8025 4.65653 18.6462 5.0076 18.0012 6.27113C17.6649 6.92981 15.1412 7.85947 15.6125 8.83976C15.9191 9.47726 16.6736 8.93089 16.3919 10.1548C16.2623 10.7179 15.7685 11.776 15.0092 11.8443C14.2326 11.9168 13.586 9.85961 11.4724 9.79216C10.4732 9.7602 9.06549 11.3512 10.2608 12.4799C10.9846 13.1634 12.3429 11.6584 12.7438 12.8341C13.0263 13.6626 12.7057 15.4029 14.0242 16.1303C14.5048 16.3954 15.2417 16.6266 15.9704 16.9969C14.8888 17.2177 13.5598 17.6299 11.9904 18.2344L10.6681 17.8855C11.2217 17.4248 12.121 17.1004 11.8948 16.0935C11.5623 14.6143 8.99387 15.1722 7.22313 13.4015C6.6799 12.8583 5.52122 11.0548 5.52598 8.8879C4.64333 10.5645 4.14098 12.4711 4.14098 14.4938C4.14098 15.1164 4.18848 15.7282 4.2798 16.3257C4.25897 16.3253 4.23838 16.3217 4.2176 16.3217C3.65995 16.3217 3.11304 16.4389 2.60617 16.6604C2.49421 15.9543 2.43446 15.231 2.43446 14.4939C2.43446 6.89412 8.61745 0.710938 16.2172 0.710938C23.817 0.710839 30 6.89402 30 14.4938ZM19.6612 18.511L16.295 20.0583L16.3473 19.3249L18.5279 18.3404C18.2169 18.3182 17.8947 18.3097 17.5729 18.3097C16.368 18.3097 14.3324 18.9196 12.0809 19.8133L4.86 17.9086C4.18519 17.7306 3.46676 17.8403 2.87573 18.2116L2.52068 18.4346C2.17407 18.6524 2.17039 19.1563 2.51377 19.3791L6.85441 22.1952C5.8175 22.7255 4.83372 23.2641 3.96647 23.7784L1.73911 22.5992C1.37529 22.4066 0.945144 22.3838 0.563036 22.5368L0.352203 22.6213C0.0377911 22.7472 -0.0939246 23.1211 0.0722519 23.4162L1.29926 25.5962L1.2998 25.596C0.83686 25.9943 0.573036 26.3246 0.573036 26.5532C0.573036 27.2373 1.4149 27.4083 2.15696 27.4083C3.48049 27.4083 20.9593 23.4063 20.9593 19.7806C20.9592 19.0626 20.4681 18.7034 19.6612 18.511ZM12.2917 25.5899L16.1379 24.235C16.3073 24.1753 16.4884 24.2882 16.5093 24.4667L16.8465 27.3498C16.9307 28.0702 16.5432 28.7635 15.8855 29.0693L15.5248 29.2369C15.2995 29.3416 15.0322 29.2855 14.868 29.0991L12.1745 26.0393C12.0434 25.8902 12.1045 25.6559 12.2917 25.5899Z" fill="#086CB4"/>
</g>
<defs>
<clipPath id="clip0_561_5545">
<rect width="30" height="30" fill="white"/>
</clipPath>
</defs>
</svg>
