<svg width="12" height="12" viewBox="0 0 12 12" fill="none" xmlns="http://www.w3.org/2000/svg">
<path d="M5.61505 3.64526V1.64075C5.61505 1.42761 5.78505 1.25 6.00005 1.25C6.19255 1.25 6.35564 1.39925 6.38148 1.58829L6.38505 1.64075V3.64526L8.775 3.64541C9.965 3.64541 10.9427 4.61989 10.9976 5.8352L11 5.94304V8.46269C11 9.68652 10.0563 10.6911 8.88401 10.7475L8.78 10.75H3.22C2.03 10.75 1.05704 9.78039 1.00242 8.56063L1 8.45237L1 5.93788C1 4.71405 1.93895 3.70461 3.111 3.64792L3.215 3.64541H5.615V6.84661L4.815 6.02049C4.665 5.8656 4.42 5.8656 4.27 6.02049C4.195 6.09794 4.16 6.20121 4.16 6.30447C4.16 6.38295 4.1824 6.46474 4.22976 6.53396L4.27 6.58328L5.725 8.09094C5.795 8.16839 5.895 8.2097 6 8.2097C6.08333 8.2097 6.16667 8.18101 6.23264 8.12663L6.27 8.09094L7.725 6.58328C7.875 6.42839 7.875 6.17539 7.725 6.02049C7.58864 5.87968 7.37376 5.86688 7.22312 5.98209L7.18 6.02049L6.385 6.84661V3.64541L5.61505 3.64526Z" fill="#086CB4"/>
</svg>
