<svg width="17" height="17" viewBox="0 0 17 17" fill="none" xmlns="http://www.w3.org/2000/svg">
<path fill-rule="evenodd" clip-rule="evenodd" d="M3.25229 1.8335H13.748C14.5319 1.8335 15.1668 2.48753 15.1668 3.295V4.316C15.1668 4.70771 15.0138 5.08387 14.7419 5.35821L10.4053 9.74484C10.3305 9.82121 10.2289 9.86363 10.1238 9.86292L6.49278 9.85161C6.38227 9.85161 6.27725 9.80424 6.20175 9.72151L2.21651 5.33842C1.97009 5.06761 1.8335 4.70984 1.8335 4.33863V3.29571C1.8335 2.48824 2.46842 1.8335 3.25229 1.8335ZM6.6869 11.0496L9.92328 11.0595C10.1251 11.0602 10.2884 11.2292 10.2884 11.4364V13.257C10.2884 13.4649 10.1704 13.653 9.98643 13.74L7.04863 15.1195C6.97999 15.1513 6.90723 15.1668 6.83447 15.1668C6.73769 15.1668 6.64091 15.1385 6.55648 15.0827C6.40891 14.9851 6.31967 14.8168 6.31967 14.6365V11.4265C6.31967 11.2179 6.48441 11.0489 6.6869 11.0496Z" fill="#086CB4"/>
</svg>
