<svg width="36" height="36" viewBox="0 0 36 36" fill="none" xmlns="http://www.w3.org/2000/svg">
<circle cx="18" cy="18" r="18" fill="#F46F30"/>
<path d="M18.0032 14.3614C15.9908 14.3614 14.3677 15.9846 14.3677 17.9969C14.3677 20.0093 15.9908 21.6324 18.0032 21.6324C20.0155 21.6324 21.6387 20.0093 21.6387 17.9969C21.6387 15.9846 20.0155 14.3614 18.0032 14.3614ZM18.0032 20.3605C16.7028 20.3605 15.6396 19.3005 15.6396 17.9969C15.6396 16.6933 16.6996 15.6334 18.0032 15.6334C19.3068 15.6334 20.3667 16.6933 20.3667 17.9969C20.3667 19.3005 19.3036 20.3605 18.0032 20.3605ZM22.6354 14.2127C22.6354 14.6841 22.2557 15.0607 21.7874 15.0607C21.316 15.0607 20.9394 14.681 20.9394 14.2127C20.9394 13.7444 21.3191 13.3647 21.7874 13.3647C22.2557 13.3647 22.6354 13.7444 22.6354 14.2127ZM25.0432 15.0733C24.9894 13.9374 24.73 12.9313 23.8978 12.1023C23.0689 11.2733 22.0627 11.0138 20.9268 10.9569C19.7561 10.8904 16.2471 10.8904 15.0764 10.9569C13.9437 11.0107 12.9375 11.2701 12.1054 12.0991C11.2732 12.9281 11.0169 13.9343 10.96 15.0702C10.8935 16.2409 10.8935 19.7498 10.96 20.9205C11.0138 22.0564 11.2732 23.0626 12.1054 23.8916C12.9375 24.7205 13.9405 24.98 15.0764 25.037C16.2471 25.1034 19.7561 25.1034 20.9268 25.037C22.0627 24.9832 23.0689 24.7237 23.8978 23.8916C24.7268 23.0626 24.9863 22.0564 25.0432 20.9205C25.1097 19.7498 25.1097 16.244 25.0432 15.0733ZM23.5308 22.1766C23.284 22.7968 22.8062 23.2746 22.1829 23.5245C21.2495 23.8947 19.0347 23.8093 18.0032 23.8093C16.9717 23.8093 14.7537 23.8916 13.8235 23.5245C13.2033 23.2777 12.7255 22.8 12.4756 22.1766C12.1054 21.2432 12.1908 19.0284 12.1908 17.9969C12.1908 16.9654 12.1085 14.7474 12.4756 13.8172C12.7224 13.197 13.2001 12.7193 13.8235 12.4693C14.7569 12.0991 16.9717 12.1845 18.0032 12.1845C19.0347 12.1845 21.2527 12.1023 22.1829 12.4693C22.8031 12.7161 23.2808 13.1939 23.5308 13.8172C23.901 14.7506 23.8156 16.9654 23.8156 17.9969C23.8156 19.0284 23.901 21.2464 23.5308 22.1766Z" fill="white"/>
</svg>
