<svg width="16" height="15" viewBox="0 0 16 15" fill="none" xmlns="http://www.w3.org/2000/svg">
<path d="M8.00303 4.40586C6.01553 4.40586 4.4124 6.00899 4.4124 7.99649C4.4124 9.98398 6.01553 11.5871 8.00303 11.5871C9.99053 11.5871 11.5937 9.98398 11.5937 7.99649C11.5937 6.00899 9.99053 4.40586 8.00303 4.40586ZM8.00303 10.3309C6.71865 10.3309 5.66865 9.28399 5.66865 7.99649C5.66865 6.70898 6.71553 5.66211 8.00303 5.66211C9.29053 5.66211 10.3374 6.70898 10.3374 7.99649C10.3374 9.28399 9.2874 10.3309 8.00303 10.3309ZM12.578 4.25898C12.578 4.72461 12.203 5.09649 11.7405 5.09649C11.2749 5.09649 10.903 4.72148 10.903 4.25898C10.903 3.79648 11.278 3.42148 11.7405 3.42148C12.203 3.42148 12.578 3.79648 12.578 4.25898ZM14.9562 5.10898C14.903 3.98711 14.6468 2.99336 13.8249 2.17461C13.0062 1.35586 12.0124 1.09961 10.8905 1.04336C9.73428 0.977734 6.26865 0.977734 5.1124 1.04336C3.99365 1.09648 2.9999 1.35273 2.17803 2.17148C1.35615 2.99023 1.10303 3.98398 1.04678 5.10586C0.981152 6.26211 0.981152 9.72773 1.04678 10.884C1.0999 12.0059 1.35615 12.9996 2.17803 13.8184C2.9999 14.6371 3.99053 14.8934 5.1124 14.9496C6.26865 15.0152 9.73428 15.0152 10.8905 14.9496C12.0124 14.8965 13.0062 14.6402 13.8249 13.8184C14.6437 12.9996 14.8999 12.0059 14.9562 10.884C15.0218 9.72773 15.0218 6.26523 14.9562 5.10898ZM13.4624 12.1246C13.2187 12.7371 12.7468 13.209 12.1312 13.4559C11.2093 13.8215 9.02178 13.7371 8.00303 13.7371C6.98428 13.7371 4.79365 13.8184 3.8749 13.4559C3.2624 13.2121 2.79053 12.7402 2.54365 12.1246C2.17803 11.2027 2.2624 9.01523 2.2624 7.99649C2.2624 6.97774 2.18115 4.78711 2.54365 3.86836C2.7874 3.25586 3.25928 2.78398 3.8749 2.53711C4.79678 2.17148 6.98428 2.25586 8.00303 2.25586C9.02178 2.25586 11.2124 2.17461 12.1312 2.53711C12.7437 2.78086 13.2155 3.25273 13.4624 3.86836C13.828 4.79023 13.7437 6.97774 13.7437 7.99649C13.7437 9.01523 13.828 11.2059 13.4624 12.1246Z" fill="white"/>
</svg>
