<svg width="36" height="36" viewBox="0 0 36 36" fill="none" xmlns="http://www.w3.org/2000/svg">
<circle cx="18" cy="18" r="18" fill="#3C4B62"/>
<g clip-path="url(#clip0_929_6176)">
<path d="M20.2346 15.7654C22.125 17.6578 22.0991 20.6918 20.246 22.5551C20.2425 22.5589 20.2384 22.563 20.2346 22.5668L18.1084 24.6931C16.233 26.5684 13.182 26.5682 11.3069 24.6931C9.43156 22.8181 9.43156 19.7667 11.3069 17.8916L12.481 16.7176C12.7923 16.4062 13.3285 16.6132 13.3446 17.0532C13.3651 17.6139 13.4656 18.1772 13.6511 18.7213C13.714 18.9055 13.6691 19.1093 13.5315 19.2469L13.1174 19.661C12.2306 20.5477 12.2028 21.9916 13.0808 22.887C13.9675 23.7913 15.425 23.7967 16.3185 22.9032L18.4447 20.7773C19.3367 19.8853 19.3329 18.4435 18.4447 17.5553C18.3276 17.4384 18.2096 17.3476 18.1175 17.2842C18.0523 17.2394 17.9985 17.18 17.9603 17.1108C17.9222 17.0415 17.9007 16.9643 17.8977 16.8853C17.8852 16.551 18.0036 16.2064 18.2678 15.9422L18.934 15.276C19.1087 15.1013 19.3827 15.0799 19.5853 15.2213C19.8173 15.3832 20.0345 15.5653 20.2346 15.7654ZM24.6939 11.3059C22.8188 9.4308 19.7678 9.43055 17.8924 11.3059L15.7662 13.4321C15.7624 13.4359 15.7583 13.44 15.7548 13.4438C13.9017 15.3072 13.8757 18.3412 15.7662 20.2336C15.9662 20.4337 16.1835 20.6157 16.4155 20.7777C16.618 20.9191 16.8921 20.8976 17.0668 20.7229L17.7329 20.0567C17.9971 19.7925 18.1156 19.448 18.103 19.1137C18.1 19.0346 18.0786 18.9574 18.0404 18.8882C18.0022 18.8189 17.9484 18.7596 17.8832 18.7148C17.7911 18.6514 17.6731 18.5605 17.556 18.4437C16.6678 17.5554 16.6641 16.1137 17.556 15.2217L19.6823 13.0958C20.5758 12.2023 22.0332 12.2076 22.9199 13.1119C23.7979 14.0073 23.7702 15.4512 22.8834 16.338L22.4693 16.7521C22.3317 16.8897 22.2868 17.0935 22.3496 17.2777C22.5351 17.8217 22.6357 18.3851 22.6562 18.9458C22.6723 19.3858 23.2085 19.5927 23.5198 19.2814L24.6939 18.1073C26.5692 16.2323 26.5692 13.1809 24.6939 11.3059Z" fill="white"/>
</g>
<defs>
<clipPath id="clip0_929_6176">
<rect width="16.2" height="16.2" fill="white" transform="translate(9.90039 9.89996)"/>
</clipPath>
</defs>
</svg>
