<svg width="30" height="30" viewBox="0 0 30 30" fill="none" xmlns="http://www.w3.org/2000/svg">
<path d="M15 10.0001C15 4.47751 12.4792 0 9.375 0C6.2696 0 3.75 4.47751 3.75 10.0001C3.75 12.4035 5.26501 14.4398 7.38523 15.2441L6.87488 27.4999C6.87488 28.8806 7.99424 30 9.375 30C10.7558 30 11.8751 28.8806 11.8751 27.4999L11.3648 15.2452C13.4865 14.4398 15 12.4035 15 10.0001Z" fill="#086CB4"/>
<path d="M26.25 9.06262L25.9376 0H24.375L24.0626 9.06262H22.8124L22.5 0H20.625L20.3126 9.06262H19.0624L18.75 0H17.1874L16.875 9.06262C16.875 10.9691 18.0177 12.6023 19.6534 13.335L19.0624 27.4999C19.0624 28.8806 20.1817 30 21.5625 30C22.9433 30 24.0626 28.8806 24.0626 27.4999L23.4716 13.335C25.1073 12.6023 26.25 10.9691 26.25 9.06262Z" fill="#086CB4"/>
</svg>
