<svg width="20" height="21" viewBox="0 0 20 21" fill="none" xmlns="http://www.w3.org/2000/svg">
<path fill-rule="evenodd" clip-rule="evenodd" d="M3.6665 9.39169C3.6665 6.4858 5.99148 4.16675 8.81454 4.16675C10.1729 4.16675 11.4801 4.71197 12.4472 5.68951C13.415 6.66777 13.9626 7.99908 13.9626 9.39169C13.9626 12.2976 11.6376 14.6166 8.81454 14.6166C5.99148 14.6166 3.6665 12.2976 3.6665 9.39169ZM8.81454 2.16675C4.86679 2.16675 1.6665 5.40146 1.6665 9.39169C1.6665 13.3819 4.86679 16.6166 8.81454 16.6166C12.7623 16.6166 15.9626 13.3819 15.9626 9.39169C15.9626 7.47551 15.2095 5.63782 13.869 4.28288C12.5284 2.92794 10.7103 2.16675 8.81454 2.16675ZM15.8443 15.212L17.9732 16.9304H18.0101C18.4408 17.3658 18.4408 18.0716 18.0101 18.5069C17.5794 18.9422 16.8811 18.9422 16.4504 18.5069L14.6838 16.4821C14.5167 16.3139 14.4229 16.0854 14.4229 15.8471C14.4229 15.6087 14.5167 15.3802 14.6838 15.212C15.0059 14.8921 15.5222 14.8921 15.8443 15.212Z" fill="#086CB4"/>
</svg>
