<svg width="14" height="15" viewBox="0 0 14 15" fill="none" xmlns="http://www.w3.org/2000/svg">
<path d="M10.4525 8.8535C10.3014 8.99991 10.232 9.21166 10.2664 9.41933L10.785 12.2893C10.8288 12.5326 10.7261 12.7787 10.5225 12.9193C10.323 13.0652 10.0576 13.0827 9.84001 12.966L7.25643 11.6185C7.1666 11.5707 7.06685 11.545 6.96476 11.5421H6.80668C6.75185 11.5502 6.69818 11.5677 6.64918 11.5946L4.06501 12.9485C3.93726 13.0127 3.7926 13.0354 3.65085 13.0127C3.30551 12.9473 3.0751 12.6183 3.13168 12.2712L3.65085 9.40125C3.68526 9.19183 3.61585 8.97891 3.46476 8.83016L1.35835 6.7885C1.18218 6.61758 1.12093 6.36091 1.20143 6.12933C1.2796 5.89833 1.4791 5.72975 1.72001 5.69183L4.61918 5.27125C4.83968 5.2485 5.03335 5.11433 5.13251 4.916L6.41001 2.29683C6.44035 2.2385 6.47943 2.18483 6.52668 2.13933L6.57918 2.0985C6.6066 2.06816 6.6381 2.04308 6.6731 2.02266L6.73668 1.99933L6.83585 1.9585H7.08143C7.30076 1.98125 7.49385 2.1125 7.59476 2.3085L8.88918 4.916C8.98251 5.10675 9.16393 5.23916 9.37335 5.27125L12.2725 5.69183C12.5175 5.72683 12.7223 5.896 12.8033 6.12933C12.8798 6.36325 12.8138 6.61991 12.6342 6.7885L10.4525 8.8535Z" fill="#FDD24A"/>
</svg>
