<svg width="36" height="36" viewBox="0 0 36 36" fill="none" xmlns="http://www.w3.org/2000/svg">
<circle cx="18" cy="18" r="18" fill="#1EA1F2"/>
<g clip-path="url(#clip0_929_6164)">
<path d="M24.4351 14.7003C24.4454 14.8442 24.4454 14.9881 24.4454 15.132C24.4454 19.5212 21.1047 24.5786 14.9989 24.5786C13.1178 24.5786 11.3703 24.0338 9.90039 23.0881C10.1677 23.119 10.4246 23.1292 10.7022 23.1292C12.2543 23.1292 13.6831 22.605 14.8241 21.7107C13.3645 21.6799 12.1412 20.7239 11.7198 19.4082C11.9254 19.439 12.131 19.4596 12.3468 19.4596C12.6449 19.4596 12.943 19.4184 13.2206 19.3465C11.6993 19.0381 10.5582 17.7018 10.5582 16.088V16.0469C11.0002 16.2936 11.5142 16.4478 12.059 16.4683C11.1647 15.8721 10.5788 14.8545 10.5788 13.7032C10.5788 13.0865 10.7432 12.5211 11.0311 12.0277C12.6655 14.0424 15.1222 15.3581 17.877 15.5021C17.8256 15.2554 17.7948 14.9984 17.7948 14.7414C17.7948 12.9117 19.275 11.4213 21.1149 11.4213C22.0709 11.4213 22.9343 11.8222 23.5408 12.4697C24.2912 12.3258 25.0107 12.0483 25.6481 11.668C25.4013 12.4389 24.8771 13.0865 24.1884 13.4976C24.8566 13.4257 25.5042 13.2407 26.1003 12.9837C25.6481 13.6416 25.0827 14.2274 24.4351 14.7003Z" fill="white"/>
</g>
<defs>
<clipPath id="clip0_929_6164">
<rect width="16.2" height="16.2" fill="white" transform="translate(9.90039 9.8999)"/>
</clipPath>
</defs>
</svg>
