<svg width="36" height="36" viewBox="0 0 36 36" fill="none" xmlns="http://www.w3.org/2000/svg">
<circle cx="18" cy="18" r="18" fill="#25D366"/>
<path d="M22.964 12.9723C21.6383 11.6434 19.8727 10.9125 17.9964 10.9125C14.1236 10.9125 10.9722 14.0639 10.9722 17.9367C10.9722 19.1738 11.295 20.3825 11.9088 21.4488L10.9121 25.0875L14.6362 24.1098C15.6614 24.6698 16.8163 24.9641 17.9933 24.9641H17.9964C21.8661 24.9641 25.0871 21.8127 25.0871 17.9399C25.0871 16.0636 24.2898 14.3012 22.964 12.9723ZM17.9964 23.7807C16.946 23.7807 15.9177 23.4991 15.0222 22.9676L14.8102 22.841L12.6017 23.42L13.1902 21.2653L13.051 21.0438C12.4657 20.1136 12.1588 19.041 12.1588 17.9367C12.1588 14.7188 14.7786 12.099 17.9996 12.099C19.5595 12.099 21.0245 12.7065 22.1255 13.8108C23.2266 14.915 23.9038 16.38 23.9006 17.9399C23.9006 21.1609 21.2143 23.7807 17.9964 23.7807ZM21.1985 19.408C21.0245 19.3194 20.1607 18.8954 19.9993 18.8385C19.8379 18.7783 19.7209 18.7499 19.6038 18.927C19.4867 19.1042 19.1513 19.4966 19.0469 19.6168C18.9457 19.7339 18.8413 19.7497 18.6672 19.6611C17.6357 19.1454 16.9586 18.7404 16.2784 17.5728C16.098 17.2627 16.4587 17.2849 16.7941 16.6141C16.8511 16.497 16.8226 16.3958 16.7783 16.3072C16.734 16.2186 16.3828 15.3548 16.2372 15.0036C16.0948 14.6619 15.9493 14.7094 15.8417 14.703C15.7405 14.6967 15.6234 14.6967 15.5063 14.6967C15.3893 14.6967 15.1994 14.741 15.038 14.915C14.8767 15.0922 14.4242 15.5162 14.4242 16.38C14.4242 17.2438 15.0539 18.0791 15.1393 18.1961C15.2279 18.3132 16.3764 20.0851 18.1388 20.8476C19.2526 21.3286 19.6892 21.3697 20.2461 21.2874C20.5846 21.2368 21.2839 20.8635 21.4295 20.4521C21.575 20.0408 21.575 19.6896 21.5307 19.6168C21.4896 19.5377 21.3725 19.4934 21.1985 19.408Z" fill="white"/>
</svg>
